<?xml version="1.0" encoding="UTF-8"?>
<svg version="1.1" viewBox="0 0 1388 1388" width="1280" height="1280" xmlns="http://www.w3.org/2000/svg">
<path transform="translate(6)" d="m0 0h947l11 7 10 9 8 7 115 115 7 8 12 11 181 181 8 7 21 21 8 7 8 8 8 7 7 7 7 8 9 11 4 7 3 15 1 8 1 26v450l-1 31-3 6-9 11-11 12-7 8-6 7-7 6-5 5-5 6-6 5-47 47-7 6-5 6-7 6-5 6-4 4h-2l-2 4h-2l-2 4-136 136h-2l-2 4-8 7-119 119-11 9-14 7-13 3-11 1-47 1h-581l-120-1-31-1-19-2-3-6v-6l10-13 13-13 11-9 22-22 5-6 5-3 6-8 5-3h2l2-5 4-4 5-3 37-37 2-3h2v-2l6-4 4-7 3-2h4l2-4 6-8 6-4 7-8 5-4 7-8 6-5 5-6 8-7 95-95 2-3h2l1-3 7-6 19-19 7-8 5-4 7-9 5-4 3-4h2l1-3 8-7 7-8 8-7 29-29 8-7 28-28 9-10 5-4 7-8 8-7 19-19 4-5 8-7 27-27 6-7 86-86 7-8 31-31 7-8 4-5 1-4 10-7 7-1 1 1v63l-1 46v194l1 17 1 5 5 1 110 1h44l2-18 1-16v-550l-1-35-398-1-82-1-48-1h-75l-19 2-1 34v81l2 38v7l8-1 26-1 65-1h208l34 1 4 2 1 8-1 1 2 1-1 4-9 10-8 7-6 5 2-4 7-8-5 4-7 7-8 7-73 73-8 7-26 26h-2l-1 3-8 7-37 37-8 7-97 97-8 7-131 131-7 8-183 183h-2l-1 3-8 7-33 33-8 7-8 8-11 8-2-1v-524l1-721zm690 554m1 9-4 5 4-2z" fill="#031517"/>
<path transform="translate(809,685)" d="m0 0 4 1v63l-1 46v194l1 17 1 5 5 1 110 1 34 1 2 1h8l2 2-2 3-5 1-6 2-17 1h-1-52l-6 1-4-1-6 1v1h-11l-5 1-1-1h-12l-2-1h-15l-4-1v-3l-3-1-1-1 1 3-10-2-3-4v-6l-3-1-2-4-3-7-2-22v-74l-1-21v-45l1-5-1-7 1-2v-18l1-6-1-4 2-5-2-2 1-7-1-14 1-6v-29l1-8h-2l-2-5h-2l-3 3-10 6-6 5h-2v2l-5 5-6 5-4 5-7 6h-2v2h-2l-2 4-5 2-2 4-9 7-8 9-5 2-3-3 18-18 7-8 5-6 3-5 35-35 7-8 4-5 1-4 10-7z" fill="#060C0E"/>
<path transform="translate(1377,441)" d="m0 0 2 3h2l1 26v450l-1 31-3 6-6 1-1-1 1-18-1-1v-19h1l1-18-1-26-1-4 1-7-1-5v-27l-1-2 1-9v-4-15l-1-6h2l-1-50h-1v-13h1l1-26h-2l1-4v-25h-1v-6h1v-9h-1v-30-1l1-5h-1v-22-1-24-1-19h1v-8l-1-2h2v-4l-2-1 1-4v-10l1-6-1-5v-8l2-3 1-17 2-7-1-2-1 5h-1l-1-6 2-9v-14l-1-13 2-1z" fill="#2E3334"/>
<path transform="translate(375,556)" d="m0 0h14l27 1 184-1 66 3 19 1 7 2-5 6-2 5-2 3h-2l-1 3-2-4-2-6-21-2h-7-1l-5-1h-4l-4 1v-2l-5 2-6-1-3 1-3-2h-3l1 2h-85v-1l-14-1v2h-5l4-1-1-1h-39l-43-1-1 2-8 1-4-1h-16l-1-2h-8l-1 1h-13l-6-2-12-2-2-2 6-2z" fill="#020708"/>
<path transform="translate(353,546)" d="m0 0h1v7l8-1 26-1 65-1h208l34 1 4 2 1 8-1 1 2 1-1 4-9 10-8 7-6 5 2-4 7-8-5 4-10 10-4-1 13-12 1-2h2l2-4 3-7 3-3-6-1-27-1-34-2-24-1h-27l-162 1-27-1h-9l-18 2-3-2-2-6zm343 8m1 9-4 5 4-2z" fill="#07191B"/>
<path transform="translate(478,380)" d="m0 0h105l34 1h95l14 1 3 2-3 2h-153v-2l-4 1-5-1-6 1-7-2 1 3-52 1-13 1h-18v2h-51l-44-1 2-2 3 1v-2l18-1 48-1 4-2v-1h13l4 1 12-1z" fill="#020708"/>
<path transform="translate(351,395)" d="m0 0h1v113l1 23v21l1 5 6 1-1 3 8 2v1l-8-1-3-2h-5l-3-3-1-8v-4l-2-3-2-7-2-38v-58l1-32 1-6h2l1-2h4z" fill="#050B0C"/>
<path transform="translate(646,608)" d="m0 0h2l-2 5-3 5-50 50-8 7-26 26h-2l-1 3-8 7-29 29-4-2 1-3 3-7 2-1v5l4-2-1-2 3-5 5-7h2v-2l4-4h2v-2h2l2-4 4-2 2-6 5-3 7-7h2v-2h2v-2l10-10h2l2-4 9-8 5-5 3-1v-2l9-7 12-11h4l3-3h2v-2h3v-2l-7 2-3 3-3-1 8-7h2v-2l6-4 7-7z" fill="#040A0B"/>
<path transform="translate(1031,1299)" d="m0 0h2l1 3-2 1-1 4-59 59-11 9-9 5-6-1 4-5 7-4 3-3 4-1v-2l7-5 4-4 1-4 8-7 10-10h2l2-4h2v-2h2v-2h2v-2l5-4 5-5 7-8 6-2v-2h2z" fill="#051517"/>
<path transform="translate(809,685)" d="m0 0 4 1v63h-1l-2-25-1-4v-16l-1-3-5 1h-4l1 4-5 1-1 3 3 2-1 2h-2v2l-4 1v-2h-2v-4l-6 6-4 1-31 31v-3l36-36 7-8 4-5 1-4 10-7z" fill="#1A2A2C"/>
<path transform="translate(1175,1154)" d="m0 0 2 2v2l2 2-76 76h-2l-2 4-8 7h-3l2-5 7-7 5-6 5-2h2v-2h2v-3h2l1-5 10-8 2-4 9-7h2v-2l6-2 2-4 6-8-2-2 12-12 5-6 4-3h2l2-4z" fill="#0B1213"/>
<path transform="translate(240,1377)" d="m0 0h39l4 1 4-1 10 1h32v3l-41 1h-97l1-3 6 1 7-2 17 1 7-1h9z" fill="#020708"/>
<path transform="translate(1324,1006)" d="m0 0h2l-1 5 2 1-6 7-8 7-26 26-3-1-4 5-5 2v2l-5 1v-4l7-7 6-3 3-5 4-2 2-5 4-1v-2h2v-2h2v-2h2v-2l6-5 7-6 5-5z" fill="#021012"/>
<path transform="translate(453,550)" d="m0 0h208l34 1 4 2-1 4-4-2v-2l-40-1h-266v-1z" fill="#FEFEFE"/>
<path transform="translate(762,743)" d="m0 0 2 1-4 5-7 6h-2v2h-2l-2 4-5 2-2 4-9 7-8 9-5 2-3-3 18-18 7-8 5-6 3-3 6-3 1 3-1 2 2 1v-2l5-3z" fill="#02080A"/>
<path transform="translate(377,382)" d="m0 0h22l-1 2-20 1-6 2 2 1 44 1v1l-46 1-19 2v7l-2-3-5-2v-2l5-5 3-2 12-2 2-1z" fill="#0F1618"/>
<path transform="translate(951,1372)" d="m0 0 2 1-7 5-3 1 3 2-4 1h-61v-3l4-1 5 1 10 1 1-2 13-1h12l19-3z" fill="#020708"/>
<path transform="translate(1175,1154)" d="m0 0 2 2v2l2 2-35 35-1-3 8-9-2-3 12-12 5-6 4-3h2l2-4z" fill="#161D1E"/>
<path transform="translate(1056,1272)" d="m0 0m-1 1m-1 1m-1 1m4 0 1 2 2 1-27 27h-2l2-6-4 4h-2v2l-5 2 2-4 13-12 13-13 3 1z" fill="#021113"/>
<path transform="translate(660,824)" d="m0 0v3l-106 106v-3l99-99z" fill="#FEFEFE"/>
<path transform="translate(1250,1081)" d="m0 0 5 1v2l-6 5-2 3h-2l-2 4h-2l-2 4-13 13-3-1 1-5 4-3 3-2h3l-5-1 1-3 7-6 4-4 2 3 2-2 1-5h2v-2z" fill="#212728"/>
<path transform="translate(1084,1244)" d="m0 0 1 3-3-1zm-3 3m-1 1m-1 1m-1 1 1 3v2h2l-2 4-18 18-4-1-3 1-1 3-2-2 7-8h2v-2l8-7 7-9z" fill="#121718"/>
<path transform="translate(389,385)" d="m0 0h37l1 2 14 1v1l-23 1-44-1 2-2 3 1v-2z" fill="#020809"/>
<path transform="translate(1324,1006)" d="m0 0h2l-1 5 2 1-6 7-8 7-9 9-1-4h-1l-2-1v-2h2v-2l6-5 7-6 5-5z" fill="#040D0F"/>
<path transform="translate(978,977)" d="m0 0h2l1 8 1 17-3 5-3-1v-27h2z" fill="#070D0E"/>
<path transform="translate(797,692)" d="m0 0 1 2 2 1-6 7-4 4-5 6-8 7-30 30v-3l36-36 7-8 4-5 1-4z" fill="#FEFEFE"/>
<path transform="translate(769,726)" d="m0 0v3l-11 11 4-1 6-5 1 2-3 5h-2v2h-2l-2 4-4 1v2l-3-1 1-3h-2-3z" fill="#031517"/>
<path transform="translate(610,654)" d="m0 0 1 3-45 45v-3l7-7 5-6 7-6 5-6 7-6 5-6 7-6z" fill="#FEFEFE"/>
<path transform="translate(1265,1062)" d="m0 0 1 3-1 2 4-2v4l-6 7-5 1-1-3-3 1v-2l5-5 3-1 2-4z" fill="#070F10"/>
<path transform="translate(77,1172)" d="m0 0 6 1-2 4-4 4h-2l-1 3-6 5h-3l1-5 5-2 2-5 3-3z" fill="#171D1E"/>
<path transform="translate(698,563)" d="m0 0h3l-1 4-9 10-8 7-6 5 2-4 7-8 5-7 5-4z" fill="#626D6E"/>
<path transform="translate(902,381)" d="m0 0 9 1 9 2-4 2h-27l1-2 11-2z" fill="#020708"/>
<path transform="translate(1094,1237)" d="m0 0m-1 1m-1 1m-1 1m-1 1m-2 1 2 1-2 4 2 1-8 8-5 1 1-4 3-5 4-1 2-4z" fill="#020E10"/>
<path transform="translate(1284,1046)" d="m0 0 2 3-5 5-1 2-5 2v2l-5 1v-4l7-7 4-2z" fill="#021315"/>
<path transform="translate(1308,1021)" d="m0 0 5 2-3 4-2 4-5 4v-5l-1 1-2-1v-2h2v-2z" fill="#02090A"/>
<path transform="translate(654,550)" d="m0 0 41 1 4 2-1 4-4-2v-2l-40-1z" fill="#FEFEFE"/>
<path transform="translate(501,382)" d="m0 0h45v2l-12 1-9-1h-11l-13-1z" fill="#031517"/>
<path transform="translate(724,774)" d="m0 0h3l1 3-5 6-5 2-3-3 7-7z" fill="#020708"/>
<path transform="translate(1056,1272)" d="m0 0m-1 1m-1 1m-1 1m-1 1m-1 1m-1 1 1 3-4 2v2h-2l-2 4-8 8-3-1 8-9 8-7z" fill="#020708"/>
<path transform="translate(1364,412)" d="m0 0 5 5v2h2l2 9-2 4-1-3-1-4-3-2z" fill="#020708"/>
<path transform="translate(838,1378)" d="m0 0h21l3 1v2h-27l-1-2z" fill="#020708"/>
<path transform="translate(1025,1308)" d="m0 0 2 1-2 4-12 12h-2l1-5 3-1 7-8z" fill="#020B0D"/>
<path transform="translate(1250,1081)" d="m0 0 5 1v2l-6 5-3 3-1-7 3-1v-2z" fill="#151F20"/>
<path transform="translate(1284,1050)" d="m0 0 2 1-2 4-9 9-2-1 2-6 5-1 2-4z" fill="#3B4445"/>
<path transform="translate(392,385)" d="m0 0m-3 0 3 1v2h6v1h-24l2-2 3 1v-2z" fill="#020708"/>
<path transform="translate(34,1226)" d="m0 0 2 1-5 5-1 4-2 1-2-1 1 3-4 3v-2l-3 1 2-4z" fill="#FEFEFE"/>
<path transform="translate(135,1362)" d="m0 0 5 1 1 7 1 4-3 3v-3-6l-5 2-1-3z" fill="#020708"/>
<path transform="translate(1250,1078)" d="m0 0 3 1 4-1-1 4h-8v-2h2zm-4 4h2v2h-2zm-1 2m-2 1h2l1 5-4 2-1-2z" fill="#020B0C"/>
<path transform="translate(971,1015)" d="m0 0 4 2-2 3-5 1-6 1 3-6z" fill="#020708"/>
<path transform="translate(1365,963)" d="m0 0 5 1-2 5-5 5v-9z" fill="#0D1415"/>
<path transform="translate(712,786)" d="m0 0 3 2-4 6-4 3h-2l-1-3 3-1v-3l4-2z" fill="#020708"/>
<path transform="translate(769,726)" d="m0 0v3l-16 16-4 2 6-7z" fill="#020F11"/>
<path transform="translate(797,692)" d="m0 0 1 2 2 1-6 7-4 3-2-1 6-7 1-4z" fill="#F2F3F3"/>
<path transform="translate(554,710)" d="m0 0 3 1-7 8-7 6-1 2h-2l2-5 7-6z" fill="#FEFEFE"/>
<path transform="translate(423,386)" d="m0 0 4 1 14 1v1l-23 1 2-3z" fill="#021416"/>
<path transform="translate(42,1208)" d="m0 0 4 1-2 4-3 3h-5l4-7z" fill="#02090A"/>
<path transform="translate(1269,1060)" d="m0 0 4 1 1 3-4 4-2-2-3 1 1-5h3z" fill="#09181A"/>
<path transform="translate(696,788)" d="m0 0v3l-16 16-2-1z" fill="#FEFEFE"/>
<path transform="translate(785,713)" d="m0 0h2v5l-1 3h-2v2h-2v2l-4 1 2-4 4-5z" fill="#021315"/>
<path transform="translate(1277,1050)" d="m0 0 1 2-3 5v3l-5 1v-4z" fill="#020708"/>
<path transform="translate(1293,1041)" d="m0 0 2 1-6 8-3 2-2-3 8-7z" fill="#091113"/>
<path transform="translate(686,551)" d="m0 0h9l4 2-1 4-4-2v-2h-8z" fill="#F6F7F7"/>
<path transform="translate(1301,1033)" d="m0 0h2l-1 4-9 9v-3l2-4 5-5z" fill="#020E10"/>
<path transform="translate(625,627)" d="m0 0h5v2h-3v2h-2l-1 2-4 2 1-4z" fill="#021416"/>
<path transform="translate(981,836)" d="m0 0h1l1 9-3 1-1 4v-13z" fill="#020809"/>
<path transform="translate(768,734)" d="m0 0 1 2-3 5h-2v2l-5 1-1 2v-3l8-7z" fill="#021113"/>
<path transform="translate(1149,1181)" d="m0 0 3 1v2l-5 4-1 2h-3l2-5z" fill="#021011"/>
<path transform="translate(1213,1122)" d="m0 0 1 3-9 9-1-3 4-5z" fill="#2A3233"/>
<path transform="translate(1082,1249)" d="m0 0 3 4-4 3-4 1 1-4z" fill="#021416"/>
<path transform="translate(631,624)" d="m0 0 3 3-9 9-1-2 1-3h2v-2h3z" fill="#020E10"/>
<path transform="translate(1031,1297)" d="m0 0 2 2-4 4h-2v2l-5 2 2-4z" fill="#020708"/>
<path transform="translate(1227,1104)" d="m0 0 2 1v2h-2l1 4-3 2-2-1 1-5z" fill="#1C292A"/>
<path transform="translate(1257,1073)" d="m0 0 2 1-1 3 2 1-3 2v-2l-6 2 3-5z" fill="#021416"/>
<path transform="translate(975,1352)" d="m0 0 1 3-10 9-2-1 4-4h2l2-4z" fill="#020708"/>
<path transform="translate(524,725)" d="m0 0 2 4-3 4-3-1 1-4z" fill="#021416"/>
<path transform="translate(538,726)" d="m0 0 2 2-5 5-6 5 2-4 5-5z" fill="#FEFEFE"/>
<path transform="translate(1117,1225)" d="m0 0 2 1-6 6-2-1z" fill="#FEFEFE"/>
<path transform="translate(240,1244)" d="m0 0v3l-5 4 2-4z" fill="#FEFEFE"/>
<path transform="translate(251,1234)" d="m0 0v3l-3 3-2-1z" fill="#FEFEFE"/>
<path transform="translate(224,1261)" d="m0 0v3l-4 2z" fill="#FEFEFE"/>
<path transform="translate(490,776)" d="m0 0v3l-3 2 2-4z" fill="#FEFEFE"/>
<path transform="translate(771,712)" d="m0 0 2 1-3 3-2-1z" fill="#FEFEFE"/>
<path transform="translate(1110,1232)" d="m0 0v3h-3z" fill="#FEFEFE"/>
<path transform="translate(547,937)" d="m0 0 2 1-4 3z" fill="#FEFEFE"/>
<path transform="translate(494,772)" d="m0 0v3h-3z" fill="#FEFEFE"/>
<path transform="translate(498,768)" d="m0 0v3h-3z" fill="#FEFEFE"/>
<path transform="translate(502,764)" d="m0 0v3h-3z" fill="#FEFEFE"/>
<path transform="translate(506,760)" d="m0 0v3h-3z" fill="#FEFEFE"/>
<path transform="translate(675,589)" d="m0 0 2 1-4 3z" fill="#FEFEFE"/>
<path transform="translate(216,1268)" d="m0 0v3l-2 1z" fill="#FEFEFE"/>
<path transform="translate(13,1244)" d="m0 0 2 1-4 2z" fill="#FEFEFE"/>
<path transform="translate(558,706)" d="m0 0 3 1-3 2z" fill="#FEFEFE"/>
<path transform="translate(785,700)" d="m0 0 2 1-4 2z" fill="#FEFEFE"/>
<path transform="translate(1101,1241)" d="m0 0v3l-2-1z" fill="#FEFEFE"/>
<path transform="translate(1105,1237)" d="m0 0v3l-2-1z" fill="#FEFEFE"/>
<path transform="translate(275,1210)" d="m0 0 2 1-3 2z" fill="#FEFEFE"/>
<path transform="translate(677,807)" d="m0 0v3l-2-1z" fill="#FEFEFE"/>
<path transform="translate(510,756)" d="m0 0v3l-2-1z" fill="#FEFEFE"/>
<path transform="translate(514,752)" d="m0 0v3l-2-1z" fill="#FEFEFE"/>
<path transform="translate(745,738)" d="m0 0 2 1-3 2z" fill="#FEFEFE"/>
<path transform="translate(563,702)" d="m0 0 2 1-3 2z" fill="#FEFEFE"/>
<path transform="translate(212,1272)" d="m0 0v3z" fill="#FEFEFE"/>
<path transform="translate(17,1241)" d="m0 0 2 1h-3z" fill="#FEFEFE"/>
<path transform="translate(484,782)" d="m0 0 2 1h-3z" fill="#FEFEFE"/>
<path transform="translate(227,1257)" d="m0 0 2 1-2 1z" fill="#FEFEFE"/>
<path transform="translate(1097,1245)" d="m0 0 1 2-2-1z" fill="#FEFEFE"/>
<path transform="translate(21,1242)" d="m0 0 2 1-2 1z" fill="#FEFEFE"/>
<path transform="translate(259,1226)" d="m0 0 2 1-2 1z" fill="#FEFEFE"/>
<path transform="translate(37,1223)" d="m0 0 2 1-2 1z" fill="#FEFEFE"/>
<path transform="translate(1120,1222)" d="m0 0 2 1-2 1z" fill="#FEFEFE"/>
<path transform="translate(549,935)" d="m0 0 2 1-2 1z" fill="#FEFEFE"/>
<path transform="translate(672,812)" d="m0 0 1 2-2-1z" fill="#FEFEFE"/>
<path transform="translate(517,749)" d="m0 0 1 2-2-1z" fill="#FEFEFE"/>
<path transform="translate(526,739)" d="m0 0 2 1-2 1z" fill="#FEFEFE"/>
<path transform="translate(1156,1186)" d="m0 0 2 1z" fill="#FEFEFE"/>
<path transform="translate(405,1079)" d="m0 0 2 1z" fill="#FEFEFE"/>
<path transform="translate(781,703)" d="m0 0 2 1z" fill="#FEFEFE"/>
<path transform="translate(789,697)" d="m0 0 2 1z" fill="#FEFEFE"/>
<path transform="translate(791,696)" d="m0 0 2 1z" fill="#FEFEFE"/>
<path transform="translate(670,594)" d="m0 0" fill="#FEFEFE"/>
<path transform="translate(671,593)" d="m0 0 2 1z" fill="#FEFEFE"/>
<path transform="translate(1009,1337)" d="m0 0" fill="#FEFEFE"/>
<path transform="translate(1010,1336)" d="m0 0" fill="#FEFEFE"/>
<path transform="translate(1011,1335)" d="m0 0" fill="#FEFEFE"/>
<path transform="translate(1012,1334)" d="m0 0" fill="#FEFEFE"/>
<path transform="translate(1013,1333)" d="m0 0" fill="#FEFEFE"/>
<path transform="translate(1014,1332)" d="m0 0" fill="#FEFEFE"/>
<path transform="translate(1015,1331)" d="m0 0" fill="#FEFEFE"/>
<path transform="translate(1016,1330)" d="m0 0" fill="#FEFEFE"/>
<path transform="translate(1017,1329)" d="m0 0" fill="#FEFEFE"/>
<path transform="translate(1018,1328)" d="m0 0" fill="#FEFEFE"/>
<path transform="translate(1019,1327)" d="m0 0" fill="#FEFEFE"/>
<path transform="translate(1020,1326)" d="m0 0" fill="#FEFEFE"/>
<path transform="translate(1021,1325)" d="m0 0" fill="#FEFEFE"/>
<path transform="translate(1022,1324)" d="m0 0" fill="#FEFEFE"/>
<path transform="translate(1023,1323)" d="m0 0" fill="#FEFEFE"/>
<path transform="translate(1024,1322)" d="m0 0" fill="#FEFEFE"/>
<path transform="translate(1020,1322)" d="m0 0" fill="#FEFEFE"/>
<path transform="translate(1025,1321)" d="m0 0" fill="#FEFEFE"/>
<path transform="translate(1021,1321)" d="m0 0" fill="#FEFEFE"/>
<path transform="translate(1026,1320)" d="m0 0" fill="#FEFEFE"/>
<path transform="translate(1027,1319)" d="m0 0" fill="#FEFEFE"/>
<path transform="translate(1023,1319)" d="m0 0" fill="#FEFEFE"/>
<path transform="translate(1028,1318)" d="m0 0" fill="#FEFEFE"/>
<path transform="translate(1024,1318)" d="m0 0" fill="#FEFEFE"/>
<path transform="translate(1029,1317)" d="m0 0" fill="#FEFEFE"/>
<path transform="translate(1025,1317)" d="m0 0" fill="#FEFEFE"/>
<path transform="translate(1030,1316)" d="m0 0" fill="#FEFEFE"/>
<path transform="translate(1031,1315)" d="m0 0" fill="#FEFEFE"/>
<path transform="translate(1027,1315)" d="m0 0" fill="#FEFEFE"/>
<path transform="translate(1032,1314)" d="m0 0" fill="#FEFEFE"/>
<path transform="translate(1028,1314)" d="m0 0" fill="#FEFEFE"/>
<path transform="translate(1033,1313)" d="m0 0" fill="#FEFEFE"/>
<path transform="translate(1029,1313)" d="m0 0" fill="#FEFEFE"/>
<path transform="translate(1034,1312)" d="m0 0" fill="#FEFEFE"/>
<path transform="translate(1035,1311)" d="m0 0" fill="#FEFEFE"/>
<path transform="translate(1031,1311)" d="m0 0" fill="#FEFEFE"/>
<path transform="translate(1036,1310)" d="m0 0" fill="#FEFEFE"/>
<path transform="translate(1032,1310)" d="m0 0" fill="#FEFEFE"/>
<path transform="translate(1037,1309)" d="m0 0" fill="#FEFEFE"/>
<path transform="translate(1033,1309)" d="m0 0" fill="#FEFEFE"/>
<path transform="translate(1038,1308)" d="m0 0" fill="#FEFEFE"/>
<path transform="translate(1034,1308)" d="m0 0" fill="#FEFEFE"/>
<path transform="translate(1039,1307)" d="m0 0" fill="#FEFEFE"/>
<path transform="translate(1035,1307)" d="m0 0" fill="#FEFEFE"/>
<path transform="translate(1040,1306)" d="m0 0" fill="#FEFEFE"/>
<path transform="translate(1036,1306)" d="m0 0" fill="#FEFEFE"/>
<path transform="translate(1041,1305)" d="m0 0" fill="#FEFEFE"/>
<path transform="translate(1037,1305)" d="m0 0" fill="#FEFEFE"/>
<path transform="translate(1042,1304)" d="m0 0" fill="#FEFEFE"/>
<path transform="translate(1038,1304)" d="m0 0" fill="#FEFEFE"/>
<path transform="translate(1043,1303)" d="m0 0" fill="#FEFEFE"/>
<path transform="translate(1039,1303)" d="m0 0" fill="#FEFEFE"/>
<path transform="translate(1044,1302)" d="m0 0" fill="#FEFEFE"/>
<path transform="translate(1040,1302)" d="m0 0" fill="#FEFEFE"/>
<path transform="translate(1045,1301)" d="m0 0" fill="#FEFEFE"/>
<path transform="translate(1041,1301)" d="m0 0" fill="#FEFEFE"/>
<path transform="translate(1046,1300)" d="m0 0" fill="#FEFEFE"/>
<path transform="translate(1042,1300)" d="m0 0" fill="#FEFEFE"/>
<path transform="translate(1047,1299)" d="m0 0" fill="#FEFEFE"/>
<path transform="translate(1043,1299)" d="m0 0" fill="#FEFEFE"/>
<path transform="translate(1048,1298)" d="m0 0" fill="#FEFEFE"/>
<path transform="translate(1044,1298)" d="m0 0" fill="#FEFEFE"/>
<path transform="translate(1049,1297)" d="m0 0" fill="#FEFEFE"/>
<path transform="translate(1045,1297)" d="m0 0" fill="#FEFEFE"/>
<path transform="translate(1050,1296)" d="m0 0" fill="#FEFEFE"/>
<path transform="translate(1046,1296)" d="m0 0" fill="#FEFEFE"/>
<path transform="translate(1051,1295)" d="m0 0" fill="#FEFEFE"/>
<path transform="translate(1047,1295)" d="m0 0" fill="#FEFEFE"/>
<path transform="translate(1052,1294)" d="m0 0" fill="#FEFEFE"/>
<path transform="translate(1048,1294)" d="m0 0" fill="#FEFEFE"/>
<path transform="translate(1053,1293)" d="m0 0" fill="#FEFEFE"/>
<path transform="translate(1049,1293)" d="m0 0" fill="#FEFEFE"/>
<path transform="translate(1054,1292)" d="m0 0" fill="#FEFEFE"/>
<path transform="translate(1050,1292)" d="m0 0" fill="#FEFEFE"/>
<path transform="translate(1055,1291)" d="m0 0" fill="#FEFEFE"/>
<path transform="translate(1051,1291)" d="m0 0" fill="#FEFEFE"/>
<path transform="translate(1056,1290)" d="m0 0" fill="#FEFEFE"/>
<path transform="translate(1052,1290)" d="m0 0" fill="#FEFEFE"/>
<path transform="translate(1057,1289)" d="m0 0" fill="#FEFEFE"/>
<path transform="translate(1053,1289)" d="m0 0" fill="#FEFEFE"/>
<path transform="translate(1058,1288)" d="m0 0" fill="#FEFEFE"/>
<path transform="translate(1054,1288)" d="m0 0" fill="#FEFEFE"/>
<path transform="translate(1059,1287)" d="m0 0" fill="#FEFEFE"/>
<path transform="translate(1055,1287)" d="m0 0" fill="#FEFEFE"/>
<path transform="translate(1060,1286)" d="m0 0" fill="#FEFEFE"/>
<path transform="translate(1056,1286)" d="m0 0" fill="#FEFEFE"/>
<path transform="translate(1061,1285)" d="m0 0" fill="#FEFEFE"/>
<path transform="translate(1057,1285)" d="m0 0" fill="#FEFEFE"/>
<path transform="translate(1062,1284)" d="m0 0" fill="#FEFEFE"/>
<path transform="translate(1063,1283)" d="m0 0" fill="#FEFEFE"/>
<path transform="translate(1059,1283)" d="m0 0" fill="#FEFEFE"/>
<path transform="translate(1064,1282)" d="m0 0" fill="#FEFEFE"/>
<path transform="translate(1060,1282)" d="m0 0" fill="#FEFEFE"/>
<path transform="translate(1065,1281)" d="m0 0" fill="#FEFEFE"/>
<path transform="translate(1061,1281)" d="m0 0" fill="#FEFEFE"/>
<path transform="translate(204,1281)" d="m0 0" fill="#FEFEFE"/>
<path transform="translate(1066,1280)" d="m0 0" fill="#FEFEFE"/>
<path transform="translate(1067,1279)" d="m0 0" fill="#FEFEFE"/>
<path transform="translate(1063,1279)" d="m0 0" fill="#FEFEFE"/>
<path transform="translate(1068,1278)" d="m0 0" fill="#FEFEFE"/>
<path transform="translate(1064,1278)" d="m0 0" fill="#FEFEFE"/>
<path transform="translate(1069,1277)" d="m0 0" fill="#FEFEFE"/>
<path transform="translate(1065,1277)" d="m0 0" fill="#FEFEFE"/>
<path transform="translate(1070,1276)" d="m0 0" fill="#FEFEFE"/>
<path transform="translate(1071,1275)" d="m0 0" fill="#FEFEFE"/>
<path transform="translate(1067,1275)" d="m0 0" fill="#FEFEFE"/>
<path transform="translate(210,1275)" d="m0 0" fill="#FEFEFE"/>
<path transform="translate(1072,1274)" d="m0 0" fill="#FEFEFE"/>
<path transform="translate(1068,1274)" d="m0 0" fill="#FEFEFE"/>
<path transform="translate(1073,1273)" d="m0 0" fill="#FEFEFE"/>
<path transform="translate(1069,1273)" d="m0 0" fill="#FEFEFE"/>
<path transform="translate(1074,1272)" d="m0 0" fill="#FEFEFE"/>
<path transform="translate(1075,1271)" d="m0 0" fill="#FEFEFE"/>
<path transform="translate(1071,1271)" d="m0 0" fill="#FEFEFE"/>
<path transform="translate(1076,1270)" d="m0 0" fill="#FEFEFE"/>
<path transform="translate(1072,1270)" d="m0 0" fill="#FEFEFE"/>
<path transform="translate(1077,1269)" d="m0 0" fill="#FEFEFE"/>
<path transform="translate(1073,1269)" d="m0 0" fill="#FEFEFE"/>
<path transform="translate(1078,1268)" d="m0 0" fill="#FEFEFE"/>
<path transform="translate(1079,1267)" d="m0 0" fill="#FEFEFE"/>
<path transform="translate(1080,1266)" d="m0 0" fill="#FEFEFE"/>
<path transform="translate(1081,1265)" d="m0 0" fill="#FEFEFE"/>
<path transform="translate(1077,1265)" d="m0 0" fill="#FEFEFE"/>
<path transform="translate(1082,1264)" d="m0 0" fill="#FEFEFE"/>
<path transform="translate(1083,1263)" d="m0 0" fill="#FEFEFE"/>
<path transform="translate(1084,1262)" d="m0 0" fill="#FEFEFE"/>
<path transform="translate(1080,1262)" d="m0 0" fill="#FEFEFE"/>
<path transform="translate(1085,1261)" d="m0 0" fill="#FEFEFE"/>
<path transform="translate(1081,1261)" d="m0 0" fill="#FEFEFE"/>
<path transform="translate(1086,1260)" d="m0 0" fill="#FEFEFE"/>
<path transform="translate(225,1260)" d="m0 0" fill="#FEFEFE"/>
<path transform="translate(1087,1259)" d="m0 0" fill="#FEFEFE"/>
<path transform="translate(1083,1259)" d="m0 0" fill="#FEFEFE"/>
<path transform="translate(226,1259)" d="m0 0" fill="#FEFEFE"/>
<path transform="translate(1088,1258)" d="m0 0" fill="#FEFEFE"/>
<path transform="translate(1084,1258)" d="m0 0" fill="#FEFEFE"/>
<path transform="translate(1089,1257)" d="m0 0" fill="#FEFEFE"/>
<path transform="translate(1085,1257)" d="m0 0" fill="#FEFEFE"/>
<path transform="translate(1090,1256)" d="m0 0" fill="#FEFEFE"/>
<path transform="translate(1086,1256)" d="m0 0" fill="#FEFEFE"/>
<path transform="translate(229,1256)" d="m0 0" fill="#FEFEFE"/>
<path transform="translate(1091,1255)" d="m0 0" fill="#FEFEFE"/>
<path transform="translate(1087,1255)" d="m0 0" fill="#FEFEFE"/>
<path transform="translate(230,1255)" d="m0 0" fill="#FEFEFE"/>
<path transform="translate(1092,1254)" d="m0 0" fill="#FEFEFE"/>
<path transform="translate(1088,1254)" d="m0 0" fill="#FEFEFE"/>
<path transform="translate(231,1254)" d="m0 0" fill="#FEFEFE"/>
<path transform="translate(1093,1253)" d="m0 0" fill="#FEFEFE"/>
<path transform="translate(1089,1253)" d="m0 0" fill="#FEFEFE"/>
<path transform="translate(232,1253)" d="m0 0" fill="#FEFEFE"/>
<path transform="translate(1094,1252)" d="m0 0" fill="#FEFEFE"/>
<path transform="translate(1090,1252)" d="m0 0" fill="#FEFEFE"/>
<path transform="translate(233,1252)" d="m0 0" fill="#FEFEFE"/>
<path transform="translate(1095,1251)" d="m0 0" fill="#FEFEFE"/>
<path transform="translate(1091,1251)" d="m0 0" fill="#FEFEFE"/>
<path transform="translate(234,1251)" d="m0 0" fill="#FEFEFE"/>
<path transform="translate(1096,1250)" d="m0 0" fill="#FEFEFE"/>
<path transform="translate(1092,1250)" d="m0 0" fill="#FEFEFE"/>
<path transform="translate(1097,1249)" d="m0 0" fill="#FEFEFE"/>
<path transform="translate(1093,1249)" d="m0 0" fill="#FEFEFE"/>
<path transform="translate(1098,1248)" d="m0 0" fill="#FEFEFE"/>
<path transform="translate(1094,1248)" d="m0 0" fill="#FEFEFE"/>
<path transform="translate(1099,1247)" d="m0 0" fill="#FEFEFE"/>
<path transform="translate(1095,1247)" d="m0 0" fill="#FEFEFE"/>
<path transform="translate(1100,1246)" d="m0 0" fill="#FEFEFE"/>
<path transform="translate(18,1246)" d="m0 0" fill="#FEFEFE"/>
<path transform="translate(1101,1245)" d="m0 0" fill="#FEFEFE"/>
<path transform="translate(19,1245)" d="m0 0" fill="#FEFEFE"/>
<path transform="translate(1098,1244)" d="m0 0" fill="#FEFEFE"/>
<path transform="translate(20,1244)" d="m0 0" fill="#FEFEFE"/>
<path transform="translate(1103,1243)" d="m0 0" fill="#FEFEFE"/>
<path transform="translate(242,1243)" d="m0 0" fill="#FEFEFE"/>
<path transform="translate(15,1243)" d="m0 0" fill="#FEFEFE"/>
<path transform="translate(1104,1242)" d="m0 0" fill="#FEFEFE"/>
<path transform="translate(243,1242)" d="m0 0" fill="#FEFEFE"/>
<path transform="translate(244,1241)" d="m0 0" fill="#FEFEFE"/>
<path transform="translate(1102,1240)" d="m0 0" fill="#FEFEFE"/>
<path transform="translate(245,1240)" d="m0 0" fill="#FEFEFE"/>
<path transform="translate(27,1237)" d="m0 0" fill="#FEFEFE"/>
<path transform="translate(1106,1236)" d="m0 0" fill="#FEFEFE"/>
<path transform="translate(252,1233)" d="m0 0" fill="#FEFEFE"/>
<path transform="translate(32,1233)" d="m0 0" fill="#FEFEFE"/>
<path transform="translate(36,1229)" d="m0 0" fill="#FEFEFE"/>
<path transform="translate(261,1225)" d="m0 0" fill="#FEFEFE"/>
<path transform="translate(40,1225)" d="m0 0" fill="#FEFEFE"/>
<path transform="translate(36,1225)" d="m0 0" fill="#FEFEFE"/>
<path transform="translate(262,1224)" d="m0 0" fill="#FEFEFE"/>
<path transform="translate(39,1222)" d="m0 0" fill="#FEFEFE"/>
<path transform="translate(1122,1221)" d="m0 0" fill="#FEFEFE"/>
<path transform="translate(40,1221)" d="m0 0" fill="#FEFEFE"/>
<path transform="translate(41,1220)" d="m0 0" fill="#FEFEFE"/>
<path transform="translate(1124,1219)" d="m0 0" fill="#FEFEFE"/>
<path transform="translate(42,1219)" d="m0 0" fill="#FEFEFE"/>
<path transform="translate(1125,1218)" d="m0 0" fill="#FEFEFE"/>
<path transform="translate(43,1218)" d="m0 0" fill="#FEFEFE"/>
<path transform="translate(1126,1217)" d="m0 0" fill="#FEFEFE"/>
<path transform="translate(44,1217)" d="m0 0" fill="#FEFEFE"/>
<path transform="translate(1128,1215)" d="m0 0" fill="#FEFEFE"/>
<path transform="translate(271,1215)" d="m0 0" fill="#FEFEFE"/>
<path transform="translate(1129,1214)" d="m0 0" fill="#FEFEFE"/>
<path transform="translate(272,1214)" d="m0 0" fill="#FEFEFE"/>
<path transform="translate(1130,1213)" d="m0 0" fill="#FEFEFE"/>
<path transform="translate(273,1213)" d="m0 0" fill="#FEFEFE"/>
<path transform="translate(1132,1211)" d="m0 0" fill="#FEFEFE"/>
<path transform="translate(1133,1210)" d="m0 0" fill="#FEFEFE"/>
<path transform="translate(1134,1209)" d="m0 0" fill="#FEFEFE"/>
<path transform="translate(1137,1206)" d="m0 0" fill="#FEFEFE"/>
<path transform="translate(1138,1205)" d="m0 0" fill="#FEFEFE"/>
<path transform="translate(282,1203)" d="m0 0" fill="#FEFEFE"/>
<path transform="translate(1141,1202)" d="m0 0" fill="#FEFEFE"/>
<path transform="translate(283,1202)" d="m0 0" fill="#FEFEFE"/>
<path transform="translate(1142,1201)" d="m0 0" fill="#FEFEFE"/>
<path transform="translate(284,1201)" d="m0 0" fill="#FEFEFE"/>
<path transform="translate(1144,1199)" d="m0 0" fill="#FEFEFE"/>
<path transform="translate(286,1199)" d="m0 0" fill="#FEFEFE"/>
<path transform="translate(1145,1198)" d="m0 0" fill="#FEFEFE"/>
<path transform="translate(287,1198)" d="m0 0" fill="#FEFEFE"/>
<path transform="translate(288,1197)" d="m0 0" fill="#FEFEFE"/>
<path transform="translate(1149,1194)" d="m0 0" fill="#FEFEFE"/>
<path transform="translate(1152,1191)" d="m0 0" fill="#FEFEFE"/>
<path transform="translate(294,1191)" d="m0 0" fill="#FEFEFE"/>
<path transform="translate(1153,1190)" d="m0 0" fill="#FEFEFE"/>
<path transform="translate(295,1190)" d="m0 0" fill="#FEFEFE"/>
<path transform="translate(296,1189)" d="m0 0" fill="#FEFEFE"/>
<path transform="translate(297,1188)" d="m0 0" fill="#FEFEFE"/>
<path transform="translate(298,1187)" d="m0 0" fill="#FEFEFE"/>
<path transform="translate(299,1186)" d="m0 0" fill="#FEFEFE"/>
<path transform="translate(300,1185)" d="m0 0" fill="#FEFEFE"/>
<path transform="translate(302,1183)" d="m0 0" fill="#FEFEFE"/>
<path transform="translate(1160,1182)" d="m0 0" fill="#FEFEFE"/>
<path transform="translate(303,1182)" d="m0 0" fill="#FEFEFE"/>
<path transform="translate(304,1181)" d="m0 0" fill="#FEFEFE"/>
<path transform="translate(305,1180)" d="m0 0" fill="#FEFEFE"/>
<path transform="translate(306,1179)" d="m0 0" fill="#FEFEFE"/>
<path transform="translate(307,1178)" d="m0 0" fill="#FEFEFE"/>
<path transform="translate(308,1177)" d="m0 0" fill="#FEFEFE"/>
<path transform="translate(309,1176)" d="m0 0" fill="#FEFEFE"/>
<path transform="translate(310,1175)" d="m0 0" fill="#FEFEFE"/>
<path transform="translate(311,1174)" d="m0 0" fill="#FEFEFE"/>
<path transform="translate(312,1173)" d="m0 0" fill="#FEFEFE"/>
<path transform="translate(313,1172)" d="m0 0" fill="#FEFEFE"/>
<path transform="translate(314,1171)" d="m0 0" fill="#FEFEFE"/>
<path transform="translate(315,1170)" d="m0 0" fill="#FEFEFE"/>
<path transform="translate(316,1169)" d="m0 0" fill="#FEFEFE"/>
<path transform="translate(317,1168)" d="m0 0" fill="#FEFEFE"/>
<path transform="translate(318,1167)" d="m0 0" fill="#FEFEFE"/>
<path transform="translate(319,1166)" d="m0 0" fill="#FEFEFE"/>
<path transform="translate(320,1165)" d="m0 0" fill="#FEFEFE"/>
<path transform="translate(321,1164)" d="m0 0" fill="#FEFEFE"/>
<path transform="translate(322,1163)" d="m0 0" fill="#FEFEFE"/>
<path transform="translate(1184,1162)" d="m0 0" fill="#FEFEFE"/>
<path transform="translate(323,1162)" d="m0 0" fill="#FEFEFE"/>
<path transform="translate(1185,1161)" d="m0 0" fill="#FEFEFE"/>
<path transform="translate(324,1161)" d="m0 0" fill="#FEFEFE"/>
<path transform="translate(325,1160)" d="m0 0" fill="#FEFEFE"/>
<path transform="translate(1187,1159)" d="m0 0" fill="#FEFEFE"/>
<path transform="translate(326,1159)" d="m0 0" fill="#FEFEFE"/>
<path transform="translate(1188,1158)" d="m0 0" fill="#FEFEFE"/>
<path transform="translate(327,1158)" d="m0 0" fill="#FEFEFE"/>
<path transform="translate(1189,1157)" d="m0 0" fill="#FEFEFE"/>
<path transform="translate(328,1157)" d="m0 0" fill="#FEFEFE"/>
<path transform="translate(329,1156)" d="m0 0" fill="#FEFEFE"/>
<path transform="translate(1191,1155)" d="m0 0" fill="#FEFEFE"/>
<path transform="translate(330,1155)" d="m0 0" fill="#FEFEFE"/>
<path transform="translate(1192,1154)" d="m0 0" fill="#FEFEFE"/>
<path transform="translate(331,1154)" d="m0 0" fill="#FEFEFE"/>
<path transform="translate(1193,1153)" d="m0 0" fill="#FEFEFE"/>
<path transform="translate(332,1153)" d="m0 0" fill="#FEFEFE"/>
<path transform="translate(333,1152)" d="m0 0" fill="#FEFEFE"/>
<path transform="translate(1195,1151)" d="m0 0" fill="#FEFEFE"/>
<path transform="translate(334,1151)" d="m0 0" fill="#FEFEFE"/>
<path transform="translate(1196,1150)" d="m0 0" fill="#FEFEFE"/>
<path transform="translate(335,1150)" d="m0 0" fill="#FEFEFE"/>
<path transform="translate(1197,1149)" d="m0 0" fill="#FEFEFE"/>
<path transform="translate(336,1149)" d="m0 0" fill="#FEFEFE"/>
<path transform="translate(337,1148)" d="m0 0" fill="#FEFEFE"/>
<path transform="translate(1199,1147)" d="m0 0" fill="#FEFEFE"/>
<path transform="translate(338,1147)" d="m0 0" fill="#FEFEFE"/>
<path transform="translate(1200,1146)" d="m0 0" fill="#FEFEFE"/>
<path transform="translate(1196,1146)" d="m0 0" fill="#FEFEFE"/>
<path transform="translate(339,1146)" d="m0 0" fill="#FEFEFE"/>
<path transform="translate(1201,1145)" d="m0 0" fill="#FEFEFE"/>
<path transform="translate(1197,1145)" d="m0 0" fill="#FEFEFE"/>
<path transform="translate(340,1145)" d="m0 0" fill="#FEFEFE"/>
<path transform="translate(1203,1143)" d="m0 0" fill="#FEFEFE"/>
<path transform="translate(342,1143)" d="m0 0" fill="#FEFEFE"/>
<path transform="translate(1204,1142)" d="m0 0" fill="#FEFEFE"/>
<path transform="translate(1200,1142)" d="m0 0" fill="#FEFEFE"/>
<path transform="translate(343,1142)" d="m0 0" fill="#FEFEFE"/>
<path transform="translate(1205,1141)" d="m0 0" fill="#FEFEFE"/>
<path transform="translate(1201,1141)" d="m0 0" fill="#FEFEFE"/>
<path transform="translate(344,1141)" d="m0 0" fill="#FEFEFE"/>
<path transform="translate(1206,1140)" d="m0 0" fill="#FEFEFE"/>
<path transform="translate(345,1140)" d="m0 0" fill="#FEFEFE"/>
<path transform="translate(1207,1139)" d="m0 0" fill="#FEFEFE"/>
<path transform="translate(346,1139)" d="m0 0" fill="#FEFEFE"/>
<path transform="translate(1208,1138)" d="m0 0" fill="#FEFEFE"/>
<path transform="translate(1204,1138)" d="m0 0" fill="#FEFEFE"/>
<path transform="translate(347,1138)" d="m0 0" fill="#FEFEFE"/>
<path transform="translate(1209,1137)" d="m0 0" fill="#FEFEFE"/>
<path transform="translate(1205,1137)" d="m0 0" fill="#FEFEFE"/>
<path transform="translate(348,1137)" d="m0 0" fill="#FEFEFE"/>
<path transform="translate(1210,1136)" d="m0 0" fill="#FEFEFE"/>
<path transform="translate(349,1136)" d="m0 0" fill="#FEFEFE"/>
<path transform="translate(1211,1135)" d="m0 0" fill="#FEFEFE"/>
<path transform="translate(350,1135)" d="m0 0" fill="#FEFEFE"/>
<path transform="translate(1212,1134)" d="m0 0" fill="#FEFEFE"/>
<path transform="translate(1208,1134)" d="m0 0" fill="#FEFEFE"/>
<path transform="translate(351,1134)" d="m0 0" fill="#FEFEFE"/>
<path transform="translate(1213,1133)" d="m0 0" fill="#FEFEFE"/>
<path transform="translate(1209,1133)" d="m0 0" fill="#FEFEFE"/>
<path transform="translate(1214,1132)" d="m0 0" fill="#FEFEFE"/>
<path transform="translate(1215,1131)" d="m0 0" fill="#FEFEFE"/>
<path transform="translate(354,1131)" d="m0 0" fill="#FEFEFE"/>
<path transform="translate(1216,1130)" d="m0 0" fill="#FEFEFE"/>
<path transform="translate(1212,1130)" d="m0 0" fill="#FEFEFE"/>
<path transform="translate(355,1130)" d="m0 0" fill="#FEFEFE"/>
<path transform="translate(1217,1129)" d="m0 0" fill="#FEFEFE"/>
<path transform="translate(1213,1129)" d="m0 0" fill="#FEFEFE"/>
<path transform="translate(356,1129)" d="m0 0" fill="#FEFEFE"/>
<path transform="translate(1218,1128)" d="m0 0" fill="#FEFEFE"/>
<path transform="translate(1219,1127)" d="m0 0" fill="#FEFEFE"/>
<path transform="translate(358,1127)" d="m0 0" fill="#FEFEFE"/>
<path transform="translate(1220,1126)" d="m0 0" fill="#FEFEFE"/>
<path transform="translate(1216,1126)" d="m0 0" fill="#FEFEFE"/>
<path transform="translate(359,1126)" d="m0 0" fill="#FEFEFE"/>
<path transform="translate(1221,1125)" d="m0 0" fill="#FEFEFE"/>
<path transform="translate(1217,1125)" d="m0 0" fill="#FEFEFE"/>
<path transform="translate(360,1125)" d="m0 0" fill="#FEFEFE"/>
<path transform="translate(1223,1123)" d="m0 0" fill="#FEFEFE"/>
<path transform="translate(1224,1122)" d="m0 0" fill="#FEFEFE"/>
<path transform="translate(1220,1122)" d="m0 0" fill="#FEFEFE"/>
<path transform="translate(363,1122)" d="m0 0" fill="#FEFEFE"/>
<path transform="translate(1225,1121)" d="m0 0" fill="#FEFEFE"/>
<path transform="translate(1221,1121)" d="m0 0" fill="#FEFEFE"/>
<path transform="translate(145,1121)" d="m0 0" fill="#FEFEFE"/>
<path transform="translate(1227,1119)" d="m0 0" fill="#FEFEFE"/>
<path transform="translate(1228,1118)" d="m0 0" fill="#FEFEFE"/>
<path transform="translate(1224,1118)" d="m0 0" fill="#FEFEFE"/>
<path transform="translate(367,1118)" d="m0 0" fill="#FEFEFE"/>
<path transform="translate(1229,1117)" d="m0 0" fill="#FEFEFE"/>
<path transform="translate(1225,1117)" d="m0 0" fill="#FEFEFE"/>
<path transform="translate(368,1117)" d="m0 0" fill="#FEFEFE"/>
<path transform="translate(149,1117)" d="m0 0" fill="#FEFEFE"/>
<path transform="translate(1230,1116)" d="m0 0" fill="#FEFEFE"/>
<path transform="translate(150,1116)" d="m0 0" fill="#FEFEFE"/>
<path transform="translate(1231,1115)" d="m0 0" fill="#FEFEFE"/>
<path transform="translate(370,1115)" d="m0 0" fill="#FEFEFE"/>
<path transform="translate(151,1115)" d="m0 0" fill="#FEFEFE"/>
<path transform="translate(1232,1114)" d="m0 0" fill="#FEFEFE"/>
<path transform="translate(371,1114)" d="m0 0" fill="#FEFEFE"/>
<path transform="translate(152,1114)" d="m0 0" fill="#FEFEFE"/>
<path transform="translate(1233,1113)" d="m0 0" fill="#FEFEFE"/>
<path transform="translate(372,1113)" d="m0 0" fill="#FEFEFE"/>
<path transform="translate(153,1113)" d="m0 0" fill="#FEFEFE"/>
<path transform="translate(154,1112)" d="m0 0" fill="#FEFEFE"/>
<path transform="translate(1235,1111)" d="m0 0" fill="#FEFEFE"/>
<path transform="translate(374,1111)" d="m0 0" fill="#FEFEFE"/>
<path transform="translate(1236,1110)" d="m0 0" fill="#FEFEFE"/>
<path transform="translate(375,1110)" d="m0 0" fill="#FEFEFE"/>
<path transform="translate(1237,1109)" d="m0 0" fill="#FEFEFE"/>
<path transform="translate(157,1109)" d="m0 0" fill="#FEFEFE"/>
<path transform="translate(1239,1107)" d="m0 0" fill="#FEFEFE"/>
<path transform="translate(378,1107)" d="m0 0" fill="#FEFEFE"/>
<path transform="translate(1240,1106)" d="m0 0" fill="#FEFEFE"/>
<path transform="translate(379,1106)" d="m0 0" fill="#FEFEFE"/>
<path transform="translate(1241,1105)" d="m0 0" fill="#FEFEFE"/>
<path transform="translate(380,1105)" d="m0 0" fill="#FEFEFE"/>
<path transform="translate(1243,1103)" d="m0 0" fill="#FEFEFE"/>
<path transform="translate(1244,1102)" d="m0 0" fill="#FEFEFE"/>
<path transform="translate(383,1102)" d="m0 0" fill="#FEFEFE"/>
<path transform="translate(1245,1101)" d="m0 0" fill="#FEFEFE"/>
<path transform="translate(384,1101)" d="m0 0" fill="#FEFEFE"/>
<path transform="translate(1246,1100)" d="m0 0" fill="#FEFEFE"/>
<path transform="translate(1247,1099)" d="m0 0" fill="#FEFEFE"/>
<path transform="translate(1248,1098)" d="m0 0" fill="#FEFEFE"/>
<path transform="translate(387,1098)" d="m0 0" fill="#FEFEFE"/>
<path transform="translate(1249,1097)" d="m0 0" fill="#FEFEFE"/>
<path transform="translate(388,1097)" d="m0 0" fill="#FEFEFE"/>
<path transform="translate(1250,1096)" d="m0 0" fill="#FEFEFE"/>
<path transform="translate(1251,1095)" d="m0 0" fill="#FEFEFE"/>
<path transform="translate(390,1095)" d="m0 0" fill="#FEFEFE"/>
<path transform="translate(1252,1094)" d="m0 0" fill="#FEFEFE"/>
<path transform="translate(391,1094)" d="m0 0" fill="#FEFEFE"/>
<path transform="translate(1253,1093)" d="m0 0" fill="#FEFEFE"/>
<path transform="translate(392,1093)" d="m0 0" fill="#FEFEFE"/>
<path transform="translate(1254,1092)" d="m0 0" fill="#FEFEFE"/>
<path transform="translate(1255,1091)" d="m0 0" fill="#FEFEFE"/>
<path transform="translate(393,1091)" d="m0 0" fill="#FEFEFE"/>
<path transform="translate(1256,1090)" d="m0 0" fill="#FEFEFE"/>
<path transform="translate(395,1090)" d="m0 0" fill="#FEFEFE"/>
<path transform="translate(1257,1089)" d="m0 0" fill="#FEFEFE"/>
<path transform="translate(396,1089)" d="m0 0" fill="#FEFEFE"/>
<path transform="translate(1258,1088)" d="m0 0" fill="#FEFEFE"/>
<path transform="translate(1259,1087)" d="m0 0" fill="#FEFEFE"/>
<path transform="translate(1260,1086)" d="m0 0" fill="#FEFEFE"/>
<path transform="translate(399,1086)" d="m0 0" fill="#FEFEFE"/>
<path transform="translate(1261,1085)" d="m0 0" fill="#FEFEFE"/>
<path transform="translate(1262,1084)" d="m0 0" fill="#FEFEFE"/>
<path transform="translate(1263,1083)" d="m0 0" fill="#FEFEFE"/>
<path transform="translate(1264,1082)" d="m0 0" fill="#FEFEFE"/>
<path transform="translate(403,1082)" d="m0 0" fill="#FEFEFE"/>
<path transform="translate(1265,1081)" d="m0 0" fill="#FEFEFE"/>
<path transform="translate(1268,1078)" d="m0 0" fill="#FEFEFE"/>
<path transform="translate(407,1078)" d="m0 0" fill="#FEFEFE"/>
<path transform="translate(1269,1077)" d="m0 0" fill="#FEFEFE"/>
<path transform="translate(408,1077)" d="m0 0" fill="#FEFEFE"/>
<path transform="translate(409,1076)" d="m0 0" fill="#FEFEFE"/>
<path transform="translate(1271,1075)" d="m0 0" fill="#FEFEFE"/>
<path transform="translate(410,1075)" d="m0 0" fill="#FEFEFE"/>
<path transform="translate(1272,1074)" d="m0 0" fill="#FEFEFE"/>
<path transform="translate(411,1074)" d="m0 0" fill="#FEFEFE"/>
<path transform="translate(1273,1073)" d="m0 0" fill="#FEFEFE"/>
<path transform="translate(412,1073)" d="m0 0" fill="#FEFEFE"/>
<path transform="translate(1274,1072)" d="m0 0" fill="#FEFEFE"/>
<path transform="translate(413,1072)" d="m0 0" fill="#FEFEFE"/>
<path transform="translate(1275,1071)" d="m0 0" fill="#FEFEFE"/>
<path transform="translate(414,1071)" d="m0 0" fill="#FEFEFE"/>
<path transform="translate(1276,1070)" d="m0 0" fill="#FEFEFE"/>
<path transform="translate(415,1070)" d="m0 0" fill="#FEFEFE"/>
<path transform="translate(1277,1069)" d="m0 0" fill="#FEFEFE"/>
<path transform="translate(416,1069)" d="m0 0" fill="#FEFEFE"/>
<path transform="translate(1278,1068)" d="m0 0" fill="#FEFEFE"/>
<path transform="translate(417,1068)" d="m0 0" fill="#FEFEFE"/>
<path transform="translate(418,1067)" d="m0 0" fill="#FEFEFE"/>
<path transform="translate(1280,1066)" d="m0 0" fill="#FEFEFE"/>
<path transform="translate(419,1066)" d="m0 0" fill="#FEFEFE"/>
<path transform="translate(1281,1065)" d="m0 0" fill="#FEFEFE"/>
<path transform="translate(420,1065)" d="m0 0" fill="#FEFEFE"/>
<path transform="translate(201,1065)" d="m0 0" fill="#FEFEFE"/>
<path transform="translate(421,1064)" d="m0 0" fill="#FEFEFE"/>
<path transform="translate(422,1063)" d="m0 0" fill="#FEFEFE"/>
<path transform="translate(1284,1062)" d="m0 0" fill="#FEFEFE"/>
<path transform="translate(423,1062)" d="m0 0" fill="#FEFEFE"/>
<path transform="translate(1285,1061)" d="m0 0" fill="#FEFEFE"/>
<path transform="translate(424,1061)" d="m0 0" fill="#FEFEFE"/>
<path transform="translate(205,1061)" d="m0 0" fill="#FEFEFE"/>
<path transform="translate(425,1060)" d="m0 0" fill="#FEFEFE"/>
<path transform="translate(426,1059)" d="m0 0" fill="#FEFEFE"/>
<path transform="translate(1288,1058)" d="m0 0" fill="#FEFEFE"/>
<path transform="translate(427,1058)" d="m0 0" fill="#FEFEFE"/>
<path transform="translate(208,1058)" d="m0 0" fill="#FEFEFE"/>
<path transform="translate(1289,1057)" d="m0 0" fill="#FEFEFE"/>
<path transform="translate(428,1057)" d="m0 0" fill="#FEFEFE"/>
<path transform="translate(209,1057)" d="m0 0" fill="#FEFEFE"/>
<path transform="translate(429,1056)" d="m0 0" fill="#FEFEFE"/>
<path transform="translate(430,1055)" d="m0 0" fill="#FEFEFE"/>
<path transform="translate(1292,1054)" d="m0 0" fill="#FEFEFE"/>
<path transform="translate(431,1054)" d="m0 0" fill="#FEFEFE"/>
<path transform="translate(1293,1053)" d="m0 0" fill="#FEFEFE"/>
<path transform="translate(432,1053)" d="m0 0" fill="#FEFEFE"/>
<path transform="translate(433,1052)" d="m0 0" fill="#FEFEFE"/>
<path transform="translate(434,1051)" d="m0 0" fill="#FEFEFE"/>
<path transform="translate(1296,1050)" d="m0 0" fill="#FEFEFE"/>
<path transform="translate(435,1050)" d="m0 0" fill="#FEFEFE"/>
<path transform="translate(1297,1049)" d="m0 0" fill="#FEFEFE"/>
<path transform="translate(436,1049)" d="m0 0" fill="#FEFEFE"/>
<path transform="translate(1298,1048)" d="m0 0" fill="#FEFEFE"/>
<path transform="translate(437,1048)" d="m0 0" fill="#FEFEFE"/>
<path transform="translate(438,1047)" d="m0 0" fill="#FEFEFE"/>
<path transform="translate(1300,1046)" d="m0 0" fill="#FEFEFE"/>
<path transform="translate(439,1046)" d="m0 0" fill="#FEFEFE"/>
<path transform="translate(1301,1045)" d="m0 0" fill="#FEFEFE"/>
<path transform="translate(440,1045)" d="m0 0" fill="#FEFEFE"/>
<path transform="translate(1302,1044)" d="m0 0" fill="#FEFEFE"/>
<path transform="translate(442,1043)" d="m0 0" fill="#FEFEFE"/>
<path transform="translate(1304,1042)" d="m0 0" fill="#FEFEFE"/>
<path transform="translate(443,1042)" d="m0 0" fill="#FEFEFE"/>
<path transform="translate(1305,1041)" d="m0 0" fill="#FEFEFE"/>
<path transform="translate(444,1041)" d="m0 0" fill="#FEFEFE"/>
<path transform="translate(1306,1040)" d="m0 0" fill="#FEFEFE"/>
<path transform="translate(1307,1039)" d="m0 0" fill="#FEFEFE"/>
<path transform="translate(446,1039)" d="m0 0" fill="#FEFEFE"/>
<path transform="translate(1308,1038)" d="m0 0" fill="#FEFEFE"/>
<path transform="translate(1304,1038)" d="m0 0" fill="#FEFEFE"/>
<path transform="translate(447,1038)" d="m0 0" fill="#FEFEFE"/>
<path transform="translate(1309,1037)" d="m0 0" fill="#FEFEFE"/>
<path transform="translate(448,1037)" d="m0 0" fill="#FEFEFE"/>
<path transform="translate(1310,1036)" d="m0 0" fill="#FEFEFE"/>
<path transform="translate(1311,1035)" d="m0 0" fill="#FEFEFE"/>
<path transform="translate(1312,1034)" d="m0 0" fill="#FEFEFE"/>
<path transform="translate(1308,1034)" d="m0 0" fill="#FEFEFE"/>
<path transform="translate(1313,1033)" d="m0 0" fill="#FEFEFE"/>
<path transform="translate(1316,1030)" d="m0 0" fill="#FEFEFE"/>
<path transform="translate(1312,1030)" d="m0 0" fill="#FEFEFE"/>
<path transform="translate(1317,1029)" d="m0 0" fill="#FEFEFE"/>
<path transform="translate(1320,1026)" d="m0 0" fill="#FEFEFE"/>
<path transform="translate(459,1026)" d="m0 0" fill="#FEFEFE"/>
<path transform="translate(1321,1025)" d="m0 0" fill="#FEFEFE"/>
<path transform="translate(1353,988)" d="m0 0" fill="#FEFEFE"/>
<path transform="translate(531,954)" d="m0 0" fill="#FEFEFE"/>
<path transform="translate(534,951)" d="m0 0" fill="#FEFEFE"/>
<path transform="translate(535,950)" d="m0 0" fill="#FEFEFE"/>
<path transform="translate(536,949)" d="m0 0" fill="#FEFEFE"/>
<path transform="translate(537,948)" d="m0 0" fill="#FEFEFE"/>
<path transform="translate(538,947)" d="m0 0" fill="#FEFEFE"/>
<path transform="translate(539,946)" d="m0 0" fill="#FEFEFE"/>
<path transform="translate(540,945)" d="m0 0" fill="#FEFEFE"/>
<path transform="translate(541,944)" d="m0 0" fill="#FEFEFE"/>
<path transform="translate(542,943)" d="m0 0" fill="#FEFEFE"/>
<path transform="translate(543,942)" d="m0 0" fill="#FEFEFE"/>
<path transform="translate(544,941)" d="m0 0" fill="#FEFEFE"/>
<path transform="translate(551,934)" d="m0 0" fill="#FEFEFE"/>
<path transform="translate(552,933)" d="m0 0" fill="#FEFEFE"/>
<path transform="translate(661,823)" d="m0 0" fill="#FEFEFE"/>
<path transform="translate(662,822)" d="m0 0" fill="#FEFEFE"/>
<path transform="translate(663,821)" d="m0 0" fill="#FEFEFE"/>
<path transform="translate(664,820)" d="m0 0" fill="#FEFEFE"/>
<path transform="translate(665,819)" d="m0 0" fill="#FEFEFE"/>
<path transform="translate(666,818)" d="m0 0" fill="#FEFEFE"/>
<path transform="translate(667,817)" d="m0 0" fill="#FEFEFE"/>
<path transform="translate(668,816)" d="m0 0" fill="#FEFEFE"/>
<path transform="translate(669,815)" d="m0 0" fill="#FEFEFE"/>
<path transform="translate(670,814)" d="m0 0" fill="#FEFEFE"/>
<path transform="translate(673,811)" d="m0 0" fill="#FEFEFE"/>
<path transform="translate(674,810)" d="m0 0" fill="#FEFEFE"/>
<path transform="translate(465,802)" d="m0 0" fill="#FEFEFE"/>
<path transform="translate(472,795)" d="m0 0" fill="#FEFEFE"/>
<path transform="translate(473,794)" d="m0 0" fill="#FEFEFE"/>
<path transform="translate(476,791)" d="m0 0" fill="#FEFEFE"/>
<path transform="translate(477,790)" d="m0 0" fill="#FEFEFE"/>
<path transform="translate(473,789)" d="m0 0" fill="#FEFEFE"/>
<path transform="translate(474,788)" d="m0 0" fill="#FEFEFE"/>
<path transform="translate(697,787)" d="m0 0" fill="#FEFEFE"/>
<path transform="translate(480,787)" d="m0 0" fill="#FEFEFE"/>
<path transform="translate(475,787)" d="m0 0" fill="#FEFEFE"/>
<path transform="translate(698,786)" d="m0 0" fill="#FEFEFE"/>
<path transform="translate(481,786)" d="m0 0" fill="#FEFEFE"/>
<path transform="translate(476,786)" d="m0 0" fill="#FEFEFE"/>
<path transform="translate(699,785)" d="m0 0" fill="#FEFEFE"/>
<path transform="translate(482,785)" d="m0 0" fill="#FEFEFE"/>
<path transform="translate(477,785)" d="m0 0" fill="#FEFEFE"/>
<path transform="translate(700,784)" d="m0 0" fill="#FEFEFE"/>
<path transform="translate(478,784)" d="m0 0" fill="#FEFEFE"/>
<path transform="translate(701,783)" d="m0 0" fill="#FEFEFE"/>
<path transform="translate(479,783)" d="m0 0" fill="#FEFEFE"/>
<path transform="translate(702,782)" d="m0 0" fill="#FEFEFE"/>
<path transform="translate(480,782)" d="m0 0" fill="#FEFEFE"/>
<path transform="translate(703,781)" d="m0 0" fill="#FEFEFE"/>
<path transform="translate(486,781)" d="m0 0" fill="#FEFEFE"/>
<path transform="translate(481,781)" d="m0 0" fill="#FEFEFE"/>
<path transform="translate(704,780)" d="m0 0" fill="#FEFEFE"/>
<path transform="translate(482,780)" d="m0 0" fill="#FEFEFE"/>
<path transform="translate(705,779)" d="m0 0" fill="#FEFEFE"/>
<path transform="translate(483,779)" d="m0 0" fill="#FEFEFE"/>
<path transform="translate(706,778)" d="m0 0" fill="#FEFEFE"/>
<path transform="translate(484,778)" d="m0 0" fill="#FEFEFE"/>
<path transform="translate(707,777)" d="m0 0" fill="#FEFEFE"/>
<path transform="translate(485,777)" d="m0 0" fill="#FEFEFE"/>
<path transform="translate(708,776)" d="m0 0" fill="#FEFEFE"/>
<path transform="translate(486,776)" d="m0 0" fill="#FEFEFE"/>
<path transform="translate(709,775)" d="m0 0" fill="#FEFEFE"/>
<path transform="translate(487,775)" d="m0 0" fill="#FEFEFE"/>
<path transform="translate(710,774)" d="m0 0" fill="#FEFEFE"/>
<path transform="translate(488,774)" d="m0 0" fill="#FEFEFE"/>
<path transform="translate(711,773)" d="m0 0" fill="#FEFEFE"/>
<path transform="translate(489,773)" d="m0 0" fill="#FEFEFE"/>
<path transform="translate(712,772)" d="m0 0" fill="#FEFEFE"/>
<path transform="translate(490,772)" d="m0 0" fill="#FEFEFE"/>
<path transform="translate(713,771)" d="m0 0" fill="#FEFEFE"/>
<path transform="translate(491,771)" d="m0 0" fill="#FEFEFE"/>
<path transform="translate(714,770)" d="m0 0" fill="#FEFEFE"/>
<path transform="translate(492,770)" d="m0 0" fill="#FEFEFE"/>
<path transform="translate(715,769)" d="m0 0" fill="#FEFEFE"/>
<path transform="translate(493,769)" d="m0 0" fill="#FEFEFE"/>
<path transform="translate(716,768)" d="m0 0" fill="#FEFEFE"/>
<path transform="translate(494,768)" d="m0 0" fill="#FEFEFE"/>
<path transform="translate(717,767)" d="m0 0" fill="#FEFEFE"/>
<path transform="translate(495,767)" d="m0 0" fill="#FEFEFE"/>
<path transform="translate(718,766)" d="m0 0" fill="#FEFEFE"/>
<path transform="translate(496,766)" d="m0 0" fill="#FEFEFE"/>
<path transform="translate(719,765)" d="m0 0" fill="#FEFEFE"/>
<path transform="translate(497,765)" d="m0 0" fill="#FEFEFE"/>
<path transform="translate(720,764)" d="m0 0" fill="#FEFEFE"/>
<path transform="translate(498,764)" d="m0 0" fill="#FEFEFE"/>
<path transform="translate(721,763)" d="m0 0" fill="#FEFEFE"/>
<path transform="translate(499,763)" d="m0 0" fill="#FEFEFE"/>
<path transform="translate(722,762)" d="m0 0" fill="#FEFEFE"/>
<path transform="translate(500,762)" d="m0 0" fill="#FEFEFE"/>
<path transform="translate(723,761)" d="m0 0" fill="#FEFEFE"/>
<path transform="translate(501,761)" d="m0 0" fill="#FEFEFE"/>
<path transform="translate(724,760)" d="m0 0" fill="#FEFEFE"/>
<path transform="translate(502,760)" d="m0 0" fill="#FEFEFE"/>
<path transform="translate(725,759)" d="m0 0" fill="#FEFEFE"/>
<path transform="translate(507,759)" d="m0 0" fill="#FEFEFE"/>
<path transform="translate(503,759)" d="m0 0" fill="#FEFEFE"/>
<path transform="translate(726,758)" d="m0 0" fill="#FEFEFE"/>
<path transform="translate(504,758)" d="m0 0" fill="#FEFEFE"/>
<path transform="translate(727,757)" d="m0 0" fill="#FEFEFE"/>
<path transform="translate(505,757)" d="m0 0" fill="#FEFEFE"/>
<path transform="translate(728,756)" d="m0 0" fill="#FEFEFE"/>
<path transform="translate(506,756)" d="m0 0" fill="#FEFEFE"/>
<path transform="translate(729,755)" d="m0 0" fill="#FEFEFE"/>
<path transform="translate(511,755)" d="m0 0" fill="#FEFEFE"/>
<path transform="translate(507,755)" d="m0 0" fill="#FEFEFE"/>
<path transform="translate(730,754)" d="m0 0" fill="#FEFEFE"/>
<path transform="translate(508,754)" d="m0 0" fill="#FEFEFE"/>
<path transform="translate(731,753)" d="m0 0" fill="#FEFEFE"/>
<path transform="translate(509,753)" d="m0 0" fill="#FEFEFE"/>
<path transform="translate(732,752)" d="m0 0" fill="#FEFEFE"/>
<path transform="translate(510,752)" d="m0 0" fill="#FEFEFE"/>
<path transform="translate(733,751)" d="m0 0" fill="#FEFEFE"/>
<path transform="translate(515,751)" d="m0 0" fill="#FEFEFE"/>
<path transform="translate(511,751)" d="m0 0" fill="#FEFEFE"/>
<path transform="translate(734,750)" d="m0 0" fill="#FEFEFE"/>
<path transform="translate(512,750)" d="m0 0" fill="#FEFEFE"/>
<path transform="translate(735,749)" d="m0 0" fill="#FEFEFE"/>
<path transform="translate(513,749)" d="m0 0" fill="#FEFEFE"/>
<path transform="translate(736,748)" d="m0 0" fill="#FEFEFE"/>
<path transform="translate(518,748)" d="m0 0" fill="#FEFEFE"/>
<path transform="translate(514,748)" d="m0 0" fill="#FEFEFE"/>
<path transform="translate(737,747)" d="m0 0" fill="#FEFEFE"/>
<path transform="translate(519,747)" d="m0 0" fill="#FEFEFE"/>
<path transform="translate(515,747)" d="m0 0" fill="#FEFEFE"/>
<path transform="translate(738,746)" d="m0 0" fill="#FEFEFE"/>
<path transform="translate(520,746)" d="m0 0" fill="#FEFEFE"/>
<path transform="translate(516,746)" d="m0 0" fill="#FEFEFE"/>
<path transform="translate(739,745)" d="m0 0" fill="#FEFEFE"/>
<path transform="translate(521,745)" d="m0 0" fill="#FEFEFE"/>
<path transform="translate(517,745)" d="m0 0" fill="#FEFEFE"/>
<path transform="translate(740,744)" d="m0 0" fill="#FEFEFE"/>
<path transform="translate(522,744)" d="m0 0" fill="#FEFEFE"/>
<path transform="translate(741,743)" d="m0 0" fill="#FEFEFE"/>
<path transform="translate(523,743)" d="m0 0" fill="#FEFEFE"/>
<path transform="translate(742,742)" d="m0 0" fill="#FEFEFE"/>
<path transform="translate(524,742)" d="m0 0" fill="#FEFEFE"/>
<path transform="translate(743,741)" d="m0 0" fill="#FEFEFE"/>
<path transform="translate(525,741)" d="m0 0" fill="#FEFEFE"/>
<path transform="translate(528,738)" d="m0 0" fill="#FEFEFE"/>
<path transform="translate(747,736)" d="m0 0" fill="#FEFEFE"/>
<path transform="translate(748,735)" d="m0 0" fill="#FEFEFE"/>
<path transform="translate(749,734)" d="m0 0" fill="#FEFEFE"/>
<path transform="translate(750,733)" d="m0 0" fill="#FEFEFE"/>
<path transform="translate(751,732)" d="m0 0" fill="#FEFEFE"/>
<path transform="translate(752,731)" d="m0 0" fill="#FEFEFE"/>
<path transform="translate(753,730)" d="m0 0" fill="#FEFEFE"/>
<path transform="translate(754,729)" d="m0 0" fill="#FEFEFE"/>
<path transform="translate(755,728)" d="m0 0" fill="#FEFEFE"/>
<path transform="translate(756,727)" d="m0 0" fill="#FEFEFE"/>
<path transform="translate(757,726)" d="m0 0" fill="#FEFEFE"/>
<path transform="translate(758,725)" d="m0 0" fill="#FEFEFE"/>
<path transform="translate(759,724)" d="m0 0" fill="#FEFEFE"/>
<path transform="translate(760,723)" d="m0 0" fill="#FEFEFE"/>
<path transform="translate(761,722)" d="m0 0" fill="#FEFEFE"/>
<path transform="translate(762,721)" d="m0 0" fill="#FEFEFE"/>
<path transform="translate(763,720)" d="m0 0" fill="#FEFEFE"/>
<path transform="translate(764,719)" d="m0 0" fill="#FEFEFE"/>
<path transform="translate(765,718)" d="m0 0" fill="#FEFEFE"/>
<path transform="translate(766,717)" d="m0 0" fill="#FEFEFE"/>
<path transform="translate(767,716)" d="m0 0" fill="#FEFEFE"/>
<path transform="translate(773,711)" d="m0 0" fill="#FEFEFE"/>
<path transform="translate(774,710)" d="m0 0" fill="#FEFEFE"/>
<path transform="translate(775,709)" d="m0 0" fill="#FEFEFE"/>
<path transform="translate(557,709)" d="m0 0" fill="#FEFEFE"/>
<path transform="translate(776,708)" d="m0 0" fill="#FEFEFE"/>
<path transform="translate(777,707)" d="m0 0" fill="#FEFEFE"/>
<path transform="translate(778,706)" d="m0 0" fill="#FEFEFE"/>
<path transform="translate(779,705)" d="m0 0" fill="#FEFEFE"/>
<path transform="translate(561,705)" d="m0 0" fill="#FEFEFE"/>
<path transform="translate(787,699)" d="m0 0" fill="#FEFEFE"/>
<path transform="translate(788,698)" d="m0 0" fill="#FEFEFE"/>
<path transform="translate(612,654)" d="m0 0" fill="#FEFEFE"/>
<path transform="translate(613,653)" d="m0 0" fill="#FEFEFE"/>
<path transform="translate(614,650)" d="m0 0" fill="#FEFEFE"/>
<path transform="translate(652,613)" d="m0 0" fill="#FEFEFE"/>
<path transform="translate(655,610)" d="m0 0" fill="#FEFEFE"/>
<path transform="translate(656,609)" d="m0 0" fill="#FEFEFE"/>
<path transform="translate(659,606)" d="m0 0" fill="#FEFEFE"/>
<path transform="translate(660,605)" d="m0 0" fill="#FEFEFE"/>
<path transform="translate(661,604)" d="m0 0" fill="#FEFEFE"/>
<path transform="translate(664,601)" d="m0 0" fill="#FEFEFE"/>
<path transform="translate(665,600)" d="m0 0" fill="#FEFEFE"/>
<path transform="translate(666,598)" d="m0 0" fill="#FEFEFE"/>
<path transform="translate(668,597)" d="m0 0" fill="#FEFEFE"/>
<path transform="translate(669,596)" d="m0 0" fill="#FEFEFE"/>
<path transform="translate(1022,56)" d="m0 0" fill="#FEFEFE"/>
<path transform="translate(1018,52)" d="m0 0" fill="#FEFEFE"/>
</svg>
